<mxfile>
    <diagram id="XscRBU3O6w5SEkWXqVGT" name="Page-1">
        <mxGraphModel dx="264" dy="621" grid="1" gridSize="10" guides="1" tooltips="1" connect="1" arrows="1" fold="1" page="1" pageScale="1" pageWidth="850" pageHeight="1100" math="0" shadow="0">
            <root>
                <mxCell id="0"/>
                <mxCell id="1" parent="0"/>
                <mxCell id="2" value="" style="rounded=0;whiteSpace=wrap;html=1;fillColor=#1ba1e2;strokeColor=#006EAF;fontColor=#ffffff;" parent="1" vertex="1">
                    <mxGeometry x="40" y="120" width="220" height="60" as="geometry"/>
                </mxCell>
                <mxCell id="3" value="&lt;font style=&quot;font-size: 36px&quot;&gt;1:05:30&lt;/font&gt;" style="text;html=1;strokeColor=none;fillColor=none;align=center;verticalAlign=middle;whiteSpace=wrap;rounded=0;" parent="1" vertex="1">
                    <mxGeometry x="50" y="120" width="200" height="60" as="geometry"/>
                </mxCell>
                <mxCell id="6" value="" style="html=1;aspect=fixed;strokeColor=none;shadow=0;align=center;verticalAlign=top;fillColor=#3B8DF1;shape=mxgraph.gcp2.play_start" parent="1" vertex="1">
                    <mxGeometry x="280" y="120" width="60" height="60" as="geometry"/>
                </mxCell>
                <mxCell id="9" value="" style="html=1;verticalLabelPosition=bottom;labelBackgroundColor=#ffffff;verticalAlign=top;shadow=0;dashed=0;strokeWidth=2;shape=mxgraph.ios7.misc.pause;strokeColor=#0080f0;" parent="1" vertex="1">
                    <mxGeometry x="360" y="120" width="60" height="60" as="geometry"/>
                </mxCell>
                <mxCell id="12" style="edgeStyle=orthogonalEdgeStyle;rounded=0;orthogonalLoop=1;jettySize=auto;html=1;" edge="1" parent="1" source="10" target="3">
                    <mxGeometry relative="1" as="geometry">
                        <mxPoint x="220" y="100" as="targetPoint"/>
                    </mxGeometry>
                </mxCell>
                <mxCell id="10" value="toggle when clicked" style="text;html=1;strokeColor=none;fillColor=none;align=center;verticalAlign=middle;whiteSpace=wrap;rounded=0;" parent="1" vertex="1">
                    <mxGeometry x="330" y="90" width="40" height="20" as="geometry"/>
                </mxCell>
                <mxCell id="11" value="" style="verticalLabelPosition=bottom;verticalAlign=top;html=1;shape=mxgraph.basic.x" parent="1" vertex="1">
                    <mxGeometry x="440" y="125" width="60" height="50" as="geometry"/>
                </mxCell>
            </root>
        </mxGraphModel>
    </diagram>
</mxfile>